<?xml version="1.0" standalone="no"?>
<!DOCTYPE svg PUBLIC "-//W3C//DTD SVG 1.1//EN" "http://www.w3.org/Graphics/SVG/1.1/DTD/svg11.dtd"
><svg version="1.1" viewBox="-256,-512,512,1024" xmlns="http://www.w3.org/2000/svg"
	><path d="
		M -0,320
			c 120,0 192,-120 192,-320
			c 0,-200 -72,-320 -192,-320
			c -120,0 -192,120 -192,320
			c 0,200, 72,320 192,320
		z
		M -0,256
			c -80,0 -128,-96 -128,-256
			c 0,-160 48,-256 128,-256
			c 80,0 128,96 128,256
			c 0,160, -48,256 -128,256
		z
		M 16,16
			m 128,-160
			l -32,-32
			l -256,320
			l 32,32
		z
	"
/></svg>
