<?xml version="1.0" standalone="no"?>
<!DOCTYPE svg PUBLIC "-//W3C//DTD SVG 1.1//EN" "http://www.w3.org/Graphics/SVG/1.1/DTD/svg11.dtd"
><svg version="1.1" viewBox="-256,-512,512,1024" xmlns="http://www.w3.org/2000/svg"
	><path d="
		M -160,-320
			v 320
			v 96
			h 64
			c 24,-12 56,-32 96,-32
			c 80,0 128,36 128,96
			c 0,60 -48,96 -128,96
			c -80,0 -160,-48 -160,-48
			l -32,55
			c 96,57 192,57 192,57
			c 120,0 192,-60 192,-160
			c 0,-100 -72,-160 -192,-160
			c -40,0 -72,18 -96,24
			v -56
			v -32
			h 288
			v -64
			h -288
			v -64
			h 256
			v -64
			h -256
			v -64
		z
	"
/></svg>
