<?xml version="1.0" standalone="no"?>
<!DOCTYPE svg PUBLIC "-//W3C//DTD SVG 1.1//EN" "http://www.w3.org/Graphics/SVG/1.1/DTD/svg11.dtd"
><svg version="1.1" viewBox="-256,-512,512,1024" xmlns="http://www.w3.org/2000/svg"
	><path d="
		M 0,320
			c 120,0 192,-60 192,-160
			c 0,-100 -72,-160 -192,-160
			c -120,0 -192,60 -192,160
			h 64
			c 0,-60 48,-96 128,-96
			c 80,0 128,48 128,96
			c 0,60 -48,96 -128,96
			c -80,0 -128,-48 -128,-96
			c 0,-224 256,-480 256,-480
			h -88
			c 0,0 -232,256 -232,480
			c 0,100 72,160 192,160
		z
		M 176,-128
			c 0,-60 -48,-96 -128,-96
			c -80,0 -128,36 -128,96
			c 0,60 48,96 128,96
			c 80,0 128,-36 128,-96
			h -64
			c 0,20 -24,32 -64,32
			c -40,0 -64,-12 -64,-32
			c 0,-20 24,-32 64,-32
			c 40,0 64,12 64,32
		z
	"
/></svg>
