<?xml version="1.0" standalone="no"?>
<!DOCTYPE svg PUBLIC "-//W3C//DTD SVG 1.1//EN" "http://www.w3.org/Graphics/SVG/1.1/DTD/svg11.dtd"
><svg version="1.1" viewBox="-256,-512,512,1024" xmlns="http://www.w3.org/2000/svg"
	><path d="
		M 0,320
			c 120,0 192,-72 192,-192
			c 0,-120 -72,-192 -192,-192
			c -120,0 -192,72 -192,192
			h 64
			c 0,-80 48,-128 128,-128
			c 80,0 128,48 128,128
			c 0,80 -48,128 -128,128
			c -80,0 -128,-48 -128,-128
			c 0,-192 256,-448 256,-448
			h -80
			c 0,0 -240,256 -240,448
			c 0,120 72,192 192,192
		z
	"
/></svg>
