<?xml version="1.0" standalone="no"?>
<!DOCTYPE svg PUBLIC "-//W3C//DTD SVG 1.1//EN" "http://www.w3.org/Graphics/SVG/1.1/DTD/svg11.dtd"
><svg version="1.1" viewBox="-256,-512,512,1024" xmlns="http://www.w3.org/2000/svg"
	><path d="
		M 0,320
			c 120,0 192,-72 192,-192
			c 0,-100 -80,-160 -128,-160
			c 24,0 96,-48 96,-128
			c 0,-100 -60,-160 -160,-160
			c -100,0 -160,60 -160,160
			c 0,80 72,128 96,128
			c -48,0 -128,60 -128,160
			c 0,120 72,192 192,192
		z
		M 0,256
			c -80,0 -128,-48 -128,-128
			c 0,-80 64,-128 128,-128
			c 64,0 128,48 128,128
			c 0,80 -48,128 -128,128
		z
		M 0,-256
			c 60,0 96,36 96,96
			c 0,60 -48,96 -96,96
			c -48,0 -96,-36 -96,-96
			c 0,-60 36,-96 96,-96
		z
	"
/></svg>
